
        <svg xmlns="http://www.w3.org/2000/svg" xmlns:xlink="http://www.w3.org/1999/xlink" version="1.1" width="3161.9846771251364" 
        height="1743.7402980163242" viewBox="0 -129.58774170010943 3161.9846771251364 1743.7402980163242">
			
			<g transform="scale(8.09923385625684) translate(10, 10)">
				<defs id="SvgjsDefs3425"></defs><g id="SvgjsG3426" featureKey="symbolFeature-0" transform="matrix(0.6182653241476771,0,0,0.6182653241476771,-58.735205794029326,-30.83836777954425)" fill="#d23535"><defs xmlns="http://www.w3.org/2000/svg"></defs><g xmlns="http://www.w3.org/2000/svg"><polygon class="fil0" points="132,290 95,314 95,134 168,94 168,174 132,154 " style="fill: none;"></polygon><polyline class="fil0" points="132,167 195,204 195,310 132,310 132,290 " style="fill: none;"></polyline><polygon class="fil0" points="212,310 212,197 178,179 178,140 248,177 248,310 " style="fill: none;"></polygon><polygon class="fil0" points="158,87 158,64 228,24 228,155 178,127 178,77 " style="fill: none;"></polygon><polygon class="fil1" points="195,199 136,167 136,290 136,310 195,310 " style="fill: #d23535;"></polygon><polygon class="fil1" points="132,167 132,154 168,174 168,94 95,134 95,314 132,290 " style="fill: #d23535;"></polygon><polygon class="fil1" points="178,130 228,155 228,24 158,64 158,87 178,77 " style="fill: #d23535;"></polygon><polygon class="fil1" points="248,177 178,140 178,179 212,197 212,310 248,310 " style="fill: #d23535;"></polygon></g></g><g id="SvgjsG3427" featureKey="nameFeature-0" transform="matrix(3.041989416376457,0,0,3.041989416376457,108.91602116724708,6.370158754353149)" fill="#222222"><path d="M2.52 40 c-0.28 0 -0.52 -0.24 -0.52 -0.52 l0 -23.96 c0 -0.28 0.24 -0.52 0.52 -0.52 l5.2 0 c0.28 0 0.52 0.24 0.52 0.52 l0 23.96 c0 0.28 -0.24 0.52 -0.52 0.52 l-5.2 0 z M12.76 40 c-0.16 0 -0.32 -0.08 -0.4 -0.24 c-0.12 -0.12 -0.12 -0.32 -0.08 -0.48 l9.32 -23.96 c0.08 -0.2 0.28 -0.32 0.48 -0.32 l5.36 0 c0.2 0 0.4 0.12 0.48 0.32 l9.16 23.96 c0.04 0.16 0.04 0.32 -0.08 0.48 c-0.08 0.16 -0.24 0.24 -0.4 0.24 l-5.56 0 c-0.2 0 -0.4 -0.12 -0.48 -0.32 l-1.48 -3.68 l-9 0.04 l-1.48 3.64 c-0.08 0.2 -0.28 0.32 -0.48 0.32 l-5.36 0 z M21.72 31 l5.76 0 l-2.88 -8.48 z M41.24 40 c-0.28 0 -0.52 -0.24 -0.52 -0.52 l0 -23.96 c0 -0.28 0.24 -0.52 0.52 -0.52 l5.76 0 c0.2 0 0.4 0.12 0.48 0.28 l6 14.8 l5.96 -14.8 c0.08 -0.16 0.28 -0.28 0.48 -0.28 l5.76 0 c0.28 0 0.52 0.24 0.52 0.52 l0 23.96 c0 0.28 -0.24 0.52 -0.52 0.52 l-4.68 0 c-0.28 0 -0.52 -0.24 -0.52 -0.52 l0 -12.88 l-4.88 12.4 c-0.08 0.16 -0.28 0.28 -0.44 0.28 l-3.36 0 c-0.2 0 -0.4 -0.12 -0.48 -0.28 l-4.92 -12.4 l0 12.88 c0 0.28 -0.24 0.52 -0.52 0.52 l-4.64 0 z M70.72 40 c-0.28 0 -0.52 -0.24 -0.52 -0.52 l0 -23.96 c0 -0.28 0.24 -0.52 0.52 -0.52 l5.2 0 c0.28 0 0.52 0.24 0.52 0.52 l0 18.72 l9 0 c0.28 0 0.52 0.24 0.52 0.52 l0 4.72 c0 0.28 -0.24 0.52 -0.52 0.52 l-14.72 0 z"></path></g>
			</g>
		</svg>
	